# xmcd
#
# Track frame offsets:
#	180
#	12387
#	20862
#	36327
#	52576
#	64929
#	74386
#	86629
#	100367
#	115779
#	122378
#	142344
#	156559
#
# Disc length: 2307 seconds
#
# Revision: 1
# Processed by: cddbd v1.5.1PL2 Copyright (c) Steve Scherf et al.
# Submitted via: audiograbber 1.83.01
#
DISCID=ba09010d
DTITLE=Mud Springs Gospel Band - The Gospel According to Bluegrass
DYEAR=1900
DGENRE=Bluegrass
TTITLE0=I'll Fly Away
TTITLE1=My Rock
TTITLE2=God Must Be A Cowboy
TTITLE3=Love is so Patient
TTITLE4=Are You Afraid To Die?
TTITLE5=Following Jesus
TTITLE6=The Gospel Plow
TTITLE7=Dancing with the Angels
TTITLE8=Pair Of Wings
TTITLE9=Goodnight, the Lord's Coming
TTITLE10=Christian Bluegrass
TTITLE11=Do Lord
TTITLE12=He's Everywhere
EXTD=
EXTT0=
EXTT1=
EXTT2=
EXTT3=
EXTT4=
EXTT5=
EXTT6=
EXTT7=
EXTT8=
EXTT9=
EXTT10=
EXTT11=
EXTT12=
PLAYORDER=
